<svg viewBox="0 0 71 71" xmlns="http://www.w3.org/2000/svg" width="71" height="71">
  <path class="circle" d="m71 35.5c0-19.61-15.89-35.5-35.5-35.5s-35.5 15.89-35.5 35.5 15.89 35.5 35.5 35.5 35.5-15.89 35.5-35.5z" fill="#0d0d0d"/>
  <g fill="#f4ede4">
    <path d="m7.08 24.21h7.14v1.98h-4.81v1.98h3.87v1.98h-3.87v4.33h-2.33z"/>
    <path d="m17.53 24.21h2.58l3.89 10.27h-2.49l-.76-2.07h-3.92l-.76 2.07h-2.42l3.89-10.27zm2.48 6.21-1.23-3.26-1.22 3.26z"/>
    <path d="m24.04 29.34c0-3.35 2.26-5.25 5.19-5.25 2.54 0 4.36 1.58 4.53 3.81h-2.32c-.15-1.08-1.03-1.83-2.21-1.83-1.63 0-2.86 1.16-2.86 3.27s1.25 3.27 2.86 3.27c1.16 0 2.07-.76 2.24-1.86h2.33c-.23 2.19-1.97 3.84-4.58 3.84-2.88 0-5.19-1.89-5.19-5.25z"/>
    <path d="m37.34 26.19h-3.01v-1.98h8.35v1.98h-3.01v8.29h-2.33z"/>
    <path d="m43.07 29.34c0-3.02 2.26-5.25 5.31-5.25s5.27 2.23 5.27 5.25-2.26 5.25-5.27 5.25-5.31-2.23-5.31-5.25zm5.31 3.27c1.7 0 2.95-1.39 2.95-3.27s-1.25-3.27-2.95-3.27-2.98 1.39-2.98 3.27 1.23 3.27 2.98 3.27z"/>
    <path d="m55.14 24.21h4.11c1.99 0 3.33 1.23 3.33 3.13 0 1.11-.57 2.11-1.54 2.67l2.63 4.47h-2.68l-2.21-4.02h-1.29v4.02h-2.33v-10.27zm3.69 4.26c.88 0 1.41-.45 1.41-1.14s-.53-1.14-1.41-1.14h-1.36v2.29h1.36z"/>
    <path d="m7.08 36.53h7.14v1.98h-4.81v1.98h3.87v1.98h-3.87v4.33h-2.33z"/>
    <path d="m15.06 42.94v-6.41h2.32v6.41c0 1.19.81 1.99 1.98 1.99s1.98-.81 1.98-1.99v-6.41h2.33v6.41c0 2.39-1.72 3.98-4.31 3.98s-4.3-1.58-4.3-3.98z"/>
    <path d="m25.44 36.53h2.82l2.54 4.69c.79 1.48 1.2 2.45 1.2 2.45s-.07-1.06-.07-2.73v-4.42h2.32v10.27h-2.82l-2.54-4.69c-.79-1.48-1.2-2.45-1.2-2.45s.09 1.06.09 2.73v4.42h-2.33v-10.27z"/>
    <path d="m36.09 36.53h3.59c2.8 0 5.31 1.63 5.31 5.13s-2.51 5.13-5.31 5.13h-3.59v-10.27zm3.32 8.29c1.73 0 3.26-.88 3.26-3.15s-1.53-3.15-3.26-3.15h-.98v6.31h.98z"/>
    <path d="m46.34 36.53h7.14v1.98h-4.81v1.98h3.87v1.98h-3.87v2.35h4.88v1.98h-7.22v-10.27z"/>
    <path d="m55.01 36.53h3.59c2.8 0 5.31 1.63 5.31 5.13s-2.51 5.13-5.31 5.13h-3.59v-10.27zm3.32 8.29c1.73 0 3.26-.88 3.26-3.15s-1.53-3.15-3.26-3.15h-.98v6.31h.98z"/>
  </g>
</svg>
